<?xml version="1.0" encoding="utf-8"?>
<svg version="1.1" xmlns:xlink="http://www.w3.org/1999/xlink" width="46px" height="46px" xmlns="http://www.w3.org/2000/svg">
  <g transform="matrix(1 0 0 1 -662 -822 )">
    <path d="M 32.79296875 5.91471354166667  C 29.7553943452381 4.52712673611111  26.4910714285714 3.83333333333333  23 3.83333333333333  C 19.5089285714286 3.83333333333333  16.2446056547619 4.52712673611111  13.20703125 5.91471354166667  C 10.1694568452381 7.30230034722222  7.75651041666667 9.17404513888889  5.96819196428571 11.5299479166667  C 4.17987351190476 13.8858506944444  3.28571428571429 16.4314236111111  3.28571428571429 19.1666666666667  C 3.28571428571429 21.4027777777778  3.89750744047619 23.5340711805556  5.12109375 25.560546875  C 6.34468005952381 27.5870225694444  8.06882440476191 29.3389756944444  10.2935267857143 30.81640625  L 12.5267857142857 32.3138020833333  L 11.8337053571429 35.1888020833333  C 11.4229910714286 37.0056423611111  10.8240327380952 38.72265625  10.0368303571429 40.33984375  C 12.6380208333333 39.08203125  14.9910714285714 37.375  17.0959821428571 35.21875  L 18.1997767857143 34.0807291666667  L 19.6629464285714 34.2604166666667  C 20.84375 34.4201388888889  21.9561011904762 34.5  23 34.5  C 26.4910714285714 34.5  29.7553943452381 33.8062065972222  32.79296875 32.4186197916667  C 35.8305431547619 31.0310329861111  38.2434895833333 29.1592881944444  40.0318080357143 26.8033854166667  C 41.8201264880952 24.4474826388889  42.7142857142857 21.9019097222222  42.7142857142857 19.1666666666667  C 42.7142857142857 16.4314236111111  41.8201264880952 13.8858506944444  40.0318080357143 11.5299479166667  C 38.2434895833333 9.17404513888889  35.8305431547619 7.30230034722222  32.79296875 5.91471354166667  Z M 42.9196428571429 9.53841145833334  C 44.9732142857143 12.4832899305556  46 15.6927083333333  46 19.1666666666667  C 46 22.640625  44.9732142857143 25.8500434027778  42.9196428571429 28.794921875  C 40.8660714285714 31.7398003472222  38.0766369047619 34.0657552083333  34.5513392857143 35.7727864583333  C 31.0260416666667 37.4798177083333  27.1755952380952 38.3333333333333  23 38.3333333333333  C 21.8020833333333 38.3333333333333  20.5613839285714 38.2534722222222  19.2779017857143 38.09375  C 15.8895089285714 41.5876736111111  11.9534970238095 44.0034722222222  7.46986607142857 45.3411458333333  C 6.63132440476191 45.6206597222222  5.65587797619048 45.8402777777778  4.54352678571429 46  L 4.41517857142857 46  C 4.15848214285714 46  3.92745535714286 45.8951822916667  3.72209821428571 45.685546875  C 3.51674107142857 45.4759114583333  3.37983630952381 45.2013888888889  3.31138392857143 44.8619791666667  L 3.31138392857143 44.83203125  C 3.26004464285714 44.7521701388889  3.25576636904762 44.6323784722222  3.29854910714286 44.47265625  C 3.3413318452381 44.3129340277778  3.35844494047619 44.2131076388889  3.34988839285714 44.1731770833333  C 3.3413318452381 44.1332465277778  3.37983630952381 44.0384114583333  3.46540178571429 43.888671875  L 3.61941964285714 43.619140625  C 3.61941964285714 43.619140625  3.67931547619048 43.5342881944445  3.79910714285714 43.3645833333333  C 3.91889880952381 43.1948784722222  3.98735119047619 43.1050347222222  4.00446428571429 43.0950520833333  C 4.12425595238095 42.9353298611111  4.38950892857143 42.5909288194445  4.80022321428571 42.0618489583333  C 5.2109375 41.5327690972222  5.50613839285714 41.1534288194445  5.68582589285714 40.923828125  C 5.86551339285714 40.6942274305556  6.13076636904762 40.2999131944445  6.48158482142857 39.7408854166667  C 6.83240327380952 39.1818576388889  7.11049107142857 38.6727430555556  7.31584821428571 38.2135416666667  C 7.52120535714286 37.7543402777778  7.75223214285714 37.1653645833333  8.00892857142857 36.4466145833333  C 8.265625 35.7278645833333  8.48809523809524 34.9691840277778  8.67633928571428 34.1705729166667  C 5.98958333333333 32.3936631944444  3.87183779761905 30.1974826388889  2.32310267857143 27.58203125  C 0.77436755952381 24.9665798611111  0 22.1614583333333  0 19.1666666666667  C 0 15.6927083333333  1.02678571428571 12.4832899305556  3.08035714285714 9.53841145833334  C 5.13392857142857 6.59353298611111  7.92336309523809 4.267578125  11.4486607142857 2.560546875  C 14.9739583333333 0.853515625  18.8244047619048 0  23 0  C 27.1755952380952 0  31.0260416666667 0.853515625  34.5513392857143 2.560546875  C 38.0766369047619 4.267578125  40.8660714285714 6.59353298611111  42.9196428571429 9.53841145833334  Z " fill-rule="nonzero" fill="#ffffff" stroke="none" transform="matrix(1 0 0 1 662 822 )" />
  </g>
</svg>