<?xml version="1.0" encoding="utf-8"?>
<svg version="1.1" xmlns:xlink="http://www.w3.org/1999/xlink" width="46px" height="46px" xmlns="http://www.w3.org/2000/svg">
  <g transform="matrix(1 0 0 1 -596 -820 )">
    <path d="M 16.6418269230769 38.8778409090909  C 17.3421474358974 39.7054924242424  17.6923076923077 40.6856060606061  17.6923076923077 41.8181818181818  C 17.6923076923077 42.9507575757576  17.3421474358974 43.9308712121212  16.6418269230769 44.7585227272727  C 15.9415064102564 45.5861742424242  15.1121794871795 46  14.1538461538462 46  C 13.1955128205128 46  12.3661858974359 45.5861742424242  11.6658653846154 44.7585227272727  C 10.9655448717949 43.9308712121212  10.6153846153846 42.9507575757576  10.6153846153846 41.8181818181818  C 10.6153846153846 40.6856060606061  10.9655448717949 39.7054924242424  11.6658653846154 38.8778409090909  C 12.3661858974359 38.0501893939394  13.1955128205128 37.6363636363636  14.1538461538462 37.6363636363636  C 15.1121794871795 37.6363636363636  15.9415064102564 38.0501893939394  16.6418269230769 38.8778409090909  Z M 41.4110576923077 38.8778409090909  C 42.1113782051282 39.7054924242424  42.4615384615385 40.6856060606061  42.4615384615385 41.8181818181818  C 42.4615384615385 42.9507575757576  42.1113782051282 43.9308712121212  41.4110576923077 44.7585227272727  C 40.7107371794872 45.5861742424242  39.8814102564103 46  38.9230769230769 46  C 37.9647435897436 46  37.1354166666667 45.5861742424242  36.4350961538462 44.7585227272727  C 35.7347756410256 43.9308712121212  35.3846153846154 42.9507575757576  35.3846153846154 41.8181818181818  C 35.3846153846154 40.6856060606061  35.7347756410256 39.7054924242424  36.4350961538462 38.8778409090909  C 37.1354166666667 38.0501893939394  37.9647435897436 37.6363636363636  38.9230769230769 37.6363636363636  C 39.8814102564103 37.6363636363636  40.7107371794872 38.0501893939394  41.4110576923077 38.8778409090909  Z M 45.4747596153846 4.80255681818182  C 45.8249198717949 5.21638257575757  46 5.70643939393939  46 6.27272727272727  L 46 23  C 46 23.5227272727273  45.8479567307692 23.9855587121212  45.5438701923077 24.3884943181818  C 45.2397836538462 24.7914299242424  44.8665865384615 25.0255681818182  44.4242788461538 25.0909090909091  L 15.5637019230769 29.0767045454545  C 15.8032852564103 30.3835227272727  15.9230769230769 31.1458333333333  15.9230769230769 31.3636363636364  C 15.9230769230769 31.7121212121212  15.7019230769231 32.4090909090909  15.2596153846154 33  L 40.6923076923077 33  C 41.1714743589744 33.4545454545455  41.5861378205128 33.6614583333333  41.9362980769231 34.0752840909091  C 42.2864583333333 34.4891098484849  42.4615384615385 34.9791666666667  42.4615384615385 35.5454545454545  C 42.4615384615385 36.1117424242424  42.2864583333333 36.6017992424242  41.9362980769231 37.015625  C 41.5861378205128 37.4294507575758  41.1714743589744 37.6363636363636  40.6923076923077 37  L 12.3846153846154 37  C 11.9054487179487 37.6363636363636  11.4907852564103 37.4294507575758  11.140625 37.015625  C 10.7904647435897 36.6017992424242  10.6153846153846 36.1117424242424  10.6153846153846 35.5454545454545  C 10.6153846153846 35.3058712121212  10.6891025641026 34.9628314393939  10.8365384615385 34.5163352272727  C 10.9839743589744 34.0698390151515  11.1314102564103 33.6777935606061  11.2788461538462 33.3401988636364  C 11.4262820512821 33.0026041666667  11.6243990384615 32.5669981060606  11.8731971153846 32.0333806818182  C 12.1219951923077 31.4997632575758  12.2648237179487 31.1785037878788  12.3016826923077 31.0696022727273  L 7.40865384615385 4.18181818181818  L 1.76923076923077 4.18181818181818  C 1.2900641025641 4.18181818181818  0.875400641025641 3.9749053030303  0.525240384615385 3.56107954545454  C 0.175080128205128 3.14725378787879  0 2.65719696969697  0 2.09090909090909  C 0 1.52462121212121  0.175080128205128 1.03456439393939  0.525240384615385 0.620738636363639  C 0.875400641025641 0.206912878787874  1.2900641025641 0  1.76923076923077 0  L 8.84615384615385 0  C 9.14102564102564 0  9.40364583333333 0.0707859848484818  9.63401442307692 0.212357954545455  C 9.86438301282051 0.353929924242424  10.0440705128205 0.522727272727272  10.1730769230769 0.71875  C 10.3020833333333 0.914772727272728  10.421875 1.18158143939393  10.5324519230769 1.51917613636364  C 10.6430288461538 1.85677083333333  10.7167467948718 2.13991477272727  10.7536057692308 2.36860795454546  C 10.7904647435897 2.59730113636364  10.8411458333333 2.9185606060606  10.9056490384615 3.33238636363636  C 10.9701522435897 3.74621212121212  11.0116185897436 4.02935606060606  11.0300480769231 5  L 44.2307692307692 5  C 44.7099358974359 4.18181818181818  45.1245993589744 4.38873106060606  45.4747596153846 4.80255681818182  Z " fill-rule="nonzero" fill="#ffffff" stroke="none" transform="matrix(1 0 0 1 596 820 )" />
  </g>
</svg>