<?xml version="1.0" encoding="utf-8"?>
<svg version="1.1" xmlns:xlink="http://www.w3.org/1999/xlink" width="46px" height="46px" xmlns="http://www.w3.org/2000/svg">
  <g transform="matrix(1 0 0 1 -523 -820 )">
    <path d="M 41.2682291666667 35.7278645833333  C 41.5078125 35.48828125  41.7274305555556 35.0789930555556  41.9270833333333 34.5  L 34.5 34.5  L 34.5 41.9270833333333  C 35.0789930555556 41.7274305555556  35.48828125 41.5078125  35.7278645833333 41.2682291666667  L 41.2682291666667 35.7278645833333  Z M 31.5052083333333 31.5052083333333  C 32.0642361111111 30.9461805555556  32.7430555555556 30.6666666666667  33.5416666666667 30.6666666666667  L 42 30.6666666666667  L 42 4  L 4 4  L 4 42  L 30.6666666666667 42  L 30.6666666666667 33.5416666666667  C 30.6666666666667 32.7430555555556  30.9461805555556 32.0642361111111  31.5052083333333 31.5052083333333  Z M 45.1614583333333 0.838541666666665  C 45.7204861111111 1.39756944444444  46 2.07638888888889  46 2.875  L 46 33.5416666666667  C 46 34.3402777777778  45.8003472222222 35.21875  45.4010416666667 36.1770833333333  C 45.0017361111111 37.1354166666667  44.5225694444445 37.8940972222222  43.9635416666667 38.453125  L 38.453125 43.9635416666667  C 37.8940972222222 44.5225694444445  37.1354166666667 45.0017361111111  36.1770833333333 45.4010416666667  C 35.21875 45.8003472222222  34.3402777777778 46  33.5416666666667 46  L 2.875 46  C 2.07638888888889 46  1.39756944444444 45.7204861111111  0.838541666666667 45.1614583333333  C 0.279513888888889 44.6024305555556  0 43.9236111111111  0 43.125  L 0 2.875  C 0 2.07638888888889  0.279513888888889 1.39756944444444  0.838541666666667 0.838541666666665  C 1.39756944444444 0.279513888888887  2.07638888888889 0  2.875 0  L 43.125 0  C 43.9236111111111 0  44.6024305555556 0.279513888888887  45.1614583333333 0.838541666666665  Z " fill-rule="nonzero" fill="#ffffff" stroke="none" transform="matrix(1 0 0 1 523 820 )" />
  </g>
</svg>