<?xml version="1.0" encoding="utf-8"?>
<svg version="1.1" xmlns:xlink="http://www.w3.org/1999/xlink" width="46px" height="46px" xmlns="http://www.w3.org/2000/svg">
  <g transform="matrix(1 0 0 1 -456 -818 )">
    <path d="M 39.3878562577447 26.2805923616524  C 39.4068566707972 26.3283969862302  39.4163568773234 26.4001039230969  39 26.4957131722525  L 39 43.705378020265  C 39.4163568773234 44.3268381397766  39.2358529533251 44.864640166277  38.8748451053284 45.3187840997662  C 38.5138372573317 45.7729280332554  38.0863279636514 46  37.5923172242875 46  L 26 46  L 26 32.23226812159  L 20 32.23226812159  L 20 46  L 8.40768277571252 46  C 7.91367203634862 46  7.48616274266832 45.7729280332554  7.12515489467162 45.3187840997662  C 6.76414704667493 44.864640166277  6.58364312267658 44.3268381397766  7 43.705378020265  L 7 26.4957131722525  C 6.58364312267658 26.4718108599636  6.58839322593969 26.4359573915303  6.59789343246592 26.3881527669525  C 6.60739363899215 26.3403481423746  6.61214374225527 26.3044946739413  6.61214374225527 26.2805923616524  L 23 9.28604832424006  L 39.3878562577447 26.2805923616524  Z M 45.9714993804213 23.1792673421668  C 45.9904997934738 23.501948558067  45.9239983477902 23.7828007274617  45.7719950433705 24.0218238503507  L 44.0049566294919 26.6749805144193  C 43.8529533250723 26.8901013250195  43.6534489880215 27.0215640426085  43.4064436183395 27.0693686671863  L 43.3209417596035 27.0693686671863  C 43.0739363899215 27.0693686671863  42.8744320528707 26.9857105741751  42.7224287484511 26.8183943881528  L 23 6.13094310210444  L 3.27757125154895 26.8183943881528  C 3.04956629491945 27.009612886464  2.82156133828996 27.0932709794752  2.59355638166047 27.0693686671863  C 2.34655101197852 27.0215640426085  2.14704667492772 26.8901013250195  1.99504337050805 26.6749805144193  L 0.228004956629492 24.0218238503507  C 0.0760016522098307 23.7828007274617  0.0095002065262289 23.501948558067  0.0285006195786865 23.1792673421668  C 0.0475010326311443 22.8565861262666  0.152003304419661 22.5996362691608  0.342007434944238 22.4084177708496  L 20.8339529120198 0.932190179267343  C 21.4419661296985 0.310730059755776  22.1639818256919 0  23 0  C 23.8360181743081 0  24.5580338703015 0.310730059755776  25.1660470879802 0.932190179267343  L 32.1201982651797 8.24629773967264  L 32.1201982651797 1.25487139516757  C 32.1201982651797 0.920239023122884  32.2057001239157 0.645362431800466  32.3767038413879 0.430241621200314  C 32.54770755886 0.215120810600157  32.7662123089632 0.107560405300078  33.0322180916976 0.107560405300078  L 38.5043370508055 0.107560405300078  C 38.7703428335399 0.107560405300078  38.9888475836431 0.215120810600157  39.1598513011152 0.430241621200314  C 39.3308550185874 0.645362431800466  39.4163568773234 0.920239023122884  39 1.25487139516757  L 39 15.8830865159782  L 45.6579925650558 22.4084177708496  C 45.8479966955803 22.5996362691608  45.9524989673689 22.8565861262666  45.9714993804213 23.1792673421668  Z " fill-rule="nonzero" fill="#ffffff" stroke="none" transform="matrix(1 0 0 1 456 818 )" />
  </g>
</svg>