<?xml version="1.0" encoding="utf-8"?>
<svg version="1.1" xmlns:xlink="http://www.w3.org/1999/xlink" width="22px" height="20px" xmlns="http://www.w3.org/2000/svg">
  <g transform="matrix(1 0 0 1 -437 -278 )">
    <path d="M 18.1205357142857 10.7291666666667  C 19.6592261904762 9.09722222222222  20.4285714285714 7.55208333333333  20.4285714285714 6.09375  C 20.4285714285714 5.390625  20.340587797619 4.76996527777778  20.1646205357143 4.23177083333333  C 19.9886532738095 3.69357638888889  19.7635788690476 3.26605902777778  19.4893973214286 2.94921875  C 19.2152157738095 2.63237847222222  18.8816964285714 2.37413194444444  18.4888392857143 2.17447916666667  C 18.0959821428571 1.97482638888889  17.7113095238095 1.84027777777778  17.3348214285714 1.77083333333333  C 16.9583333333333 1.70138888888889  16.5572916666667 1.66666666666667  16.1316964285714 1.66666666666667  C 15.7061011904762 1.66666666666667  15.2477678571429 1.77734375  14.7566964285714 1.99869791666667  C 14.265625 2.22005208333333  13.8134300595238 2.49782986111111  13.4001116071429 2.83203125  C 12.9867931547619 3.16623263888889  12.6328125 3.47873263888889  12.3381696428571 3.76953125  C 12.0435267857143 4.06032986111111  11.7979910714286 4.32725694444444  11.6015625 4.5703125  C 11.4542410714286 4.76128472222222  11.2537202380952 4.85677083333333  11 4.85677083333333  C 10.7462797619048 4.85677083333333  10.5457589285714 4.76128472222222  10.3984375 4.5703125  C 10.2020089285714 4.32725694444444  9.95647321428572 4.06032986111111  9.66183035714286 3.76953125  C 9.3671875 3.47873263888889  9.0132068452381 3.16623263888889  8.59988839285714 2.83203125  C 8.18656994047619 2.49782986111111  7.734375 2.22005208333333  7.24330357142857 1.99869791666667  C 6.75223214285714 1.77734375  6.29389880952381 1.66666666666667  5.86830357142857 1.66666666666667  C 5.44270833333333 1.66666666666667  5.04166666666667 1.70138888888889  4.66517857142857 1.77083333333333  C 4.28869047619048 1.84027777777778  3.90401785714286 1.97482638888889  3.51116071428571 2.17447916666667  C 3.11830357142857 2.37413194444444  2.78478422619048 2.63237847222222  2.51060267857143 2.94921875  C 2.23642113095238 3.26605902777778  2.01134672619048 3.69357638888889  1.83537946428571 4.23177083333333  C 1.65941220238095 4.76996527777778  1.57142857142857 5.390625  1.57142857142857 6.09375  C 1.57142857142857 7.55208333333333  2.33668154761905 9.09288194444444  3.8671875 10.7161458333333  L 11 18.0078125  L 18.1205357142857 10.7291666666667  Z M 20.4408482142857 1.61458333333333  C 21.4802827380952 2.69097222222222  22 4.18402777777778  22 6.09375  C 22 8.01215277777778  21.0628720238095 9.96527777777778  19.1886160714286 11.953125  L 11.5401785714286 19.765625  C 11.3928571428571 19.921875  11.2127976190476 20  11 20  C 10.7872023809524 20  10.6071428571429 19.921875  10.4598214285714 19.765625  L 2.79910714285714 11.9270833333333  C 2.71726190476191 11.8576388888889  2.60472470238095 11.7447916666667  2.46149553571429 11.5885416666667  C 2.31826636904762 11.4322916666667  2.09114583333333 11.1480034722222  1.78013392857143 10.7356770833333  C 1.46912202380952 10.3233506944444  1.19084821428571 9.90017361111111  0.9453125 9.46614583333333  C 0.699776785714286 9.03211805555556  0.480840773809524 8.50694444444444  0.288504464285714 7.890625  C 0.0961681547619048 7.27430555555555  0 6.67534722222222  0 6.09375  C 0 4.18402777777778  0.519717261904762 2.69097222222222  1.55915178571429 1.61458333333333  C 2.59858630952381 0.538194444444444  4.03497023809524 0  5.86830357142857 0  C 6.37574404761905 0  6.89341517857143 0.093315972222221  7.42131696428571 0.279947916666667  C 7.94921875 0.466579861111109  8.44029017857143 0.718315972222221  8.89453125 1.03515625  C 9.34877232142857 1.35199652777778  9.73958333333334 1.64930555555555  10.0669642857143 1.92708333333333  C 10.3943452380952 2.20486111111111  10.7053571428571 2.5  11 2.8125  C 11.2946428571429 2.5  11.6056547619048 2.20486111111111  11.9330357142857 1.92708333333333  C 12.2604166666667 1.64930555555555  12.6512276785714 1.35199652777778  13.10546875 1.03515625  C 13.5597098214286 0.718315972222221  14.05078125 0.466579861111109  14.5786830357143 0.279947916666667  C 15.1065848214286 0.093315972222221  15.624255952381 0  16.1316964285714 0  C 17.9650297619048 0  19.4014136904762 0.538194444444444  20.4408482142857 1.61458333333333  Z " fill-rule="nonzero" fill="#ffffff" stroke="none" transform="matrix(1 0 0 1 437 278 )" />
  </g>
</svg>