<?xml version="1.0" encoding="utf-8"?>
<svg version="1.1" xmlns:xlink="http://www.w3.org/1999/xlink" width="16px" height="20px" xmlns="http://www.w3.org/2000/svg">
  <g transform="matrix(1 0 0 1 -708 -496 )">
    <path d="M 16 10  C 16 10.2150537634409  15.9021879021879 10.4011579818031  15.7065637065637 10.5583126550868  L 4.24710424710425 19.7642679900744  C 4.05148005148005 19.9214226633581  3.81981981981982 20  3.55212355212355 20  C 3.28442728442728 20  3.05276705276705 19.9214226633581  2.85714285714286 19.7642679900744  L 0.293436293436293 17.7047146401985  C 0.097812097812098 17.5475599669148  0 17.3614557485525  0 17.1464019851117  C 0 16.9313482216708  0.097812097812098 16.7452440033085  0.293436293436293 16.5880893300248  L 8.4942084942085 10  L 0.293436293436293 3.41191066997519  C 0.097812097812098 3.25475599669148  0 3.0686517783292  0 2.85359801488834  C 0 2.63854425144747  0.097812097812098 2.45244003308519  0.293436293436293 2.29528535980149  L 2.85714285714286 0.235732009925558  C 3.05276705276705 0.0785773366418518  3.28442728442728 0  3.55212355212355 0  C 3.81981981981982 0  4.05148005148005 0.0785773366418518  4.24710424710425 0.235732009925558  L 15.7065637065637 9.44168734491315  C 15.9021879021879 9.59884201819686  16 9.78494623655914  16 10  Z " fill-rule="nonzero" fill="#ffffff" stroke="none" transform="matrix(1 0 0 1 708 496 )" />
  </g>
</svg>