<?xml version="1.0" encoding="utf-8"?>
<svg version="1.1" xmlns:xlink="http://www.w3.org/1999/xlink" width="24px" height="24px" xmlns="http://www.w3.org/2000/svg">
  <g transform="matrix(1 0 0 1 -712 -1562 )">
    <path d="M 724 1565  C 729.04 1565  733 1568.96  733 1574  C 733 1579.04  729.04 1583  724 1583  C 718.96 1583  715 1579.04  715 1574  C 715 1568.96  718.96 1565  724 1565  Z " fill-rule="nonzero" fill="#ffffff" stroke="none" />
    <path d="M 724 1564  C 729.6 1564  734 1568.4  734 1574  C 734 1579.6  729.6 1584  724 1584  C 718.4 1584  714 1579.6  714 1574  C 714 1568.4  718.4 1564  724 1564  Z " stroke-width="4" stroke="#17445e" fill="none" />
  </g>
</svg>