<?xml version="1.0" encoding="utf-8"?>
<svg version="1.1" xmlns:xlink="http://www.w3.org/1999/xlink" width="28px" height="41px" xmlns="http://www.w3.org/2000/svg">
  <g transform="matrix(1 0 0 1 -1768 -1102 )">
    <path d="M 1782 1139.91905422417  C 1777 1130.85403336872  1769.5 1125.41502085545  1769.5 1116.35  C 1769.5 1111.57714285714  1772 1103.5  1782 1103.5  C 1792 1103.5  1794.5 1111.57714285714  1794.5 1116.35  C 1794.5 1125.41502085545  1787 1130.85403336872  1782 1139.91905422417  Z " fill-rule="nonzero" fill="#cc0000" stroke="none" />
    <path d="M 1782 1143  C 1776.4 1132.75  1768 1126.6  1768 1116.35  C 1768 1111.02  1770.8 1102  1782 1102  C 1793.2 1102  1796 1111.02  1796 1116.35  C 1796 1126.6  1787.6 1132.75  1782 1143  Z M 1782 1138.89207229889  C 1786.8 1130.22204449163  1794 1125.02002780727  1794 1116.35  C 1794 1111.76285714286  1791.6 1104  1782 1104  C 1772.4 1104  1770 1111.76285714286  1770 1116.35  C 1770 1125.02002780727  1777.2 1130.22204449163  1782 1138.89207229889  Z " fill-rule="nonzero" fill="#ffffff" stroke="none" />
  </g>
</svg>