<?xml version="1.0" encoding="utf-8"?>
<svg version="1.1" xmlns:xlink="http://www.w3.org/1999/xlink" width="52px" height="28px" xmlns="http://www.w3.org/2000/svg">
  <g transform="matrix(1 0 0 1 -112 -414 )">
    <path d="M 123.255086019214 415  C 123.255086019214 415  121.012249474996 415.603840608059  121.012249474996 415.603840608059  C 121.012249474996 415.603840608059  113.151270348399 428  113.151270348399 428  C 113.151270348399 428  121.012249474996 440.396159391941  121.012249474996 440.396159391941  C 121.012249474996 440.396159391941  123.255086019214 441  123.255086019214 441  C 123.255086019214 441  158.25 441  158.25 441  C 160.91 441  163 438.91  163 436.25  C 163 436.25  163 419.75  163 419.75  C 163 417.09  160.91 415  158.25 415  C 158.25 415  123.255086019214 415  123.255086019214 415  Z " fill-rule="nonzero" fill="#ffffff" stroke="none" />
  </g>
</svg>