<?xml version="1.0" encoding="utf-8"?>
<svg version="1.1" xmlns:xlink="http://www.w3.org/1999/xlink" width="52px" height="28px" xmlns="http://www.w3.org/2000/svg">
  <g transform="matrix(1 0 0 1 -356 -414 )">
    <path d="M 396.744913980786 415  C 396.744913980786 415  398.987750525004 415.603840608059  398.987750525004 415.603840608059  C 398.987750525004 415.603840608059  406.848729651601 428  406.848729651601 428  C 406.848729651601 428  398.987750525004 440.396159391941  398.987750525004 440.396159391941  C 398.987750525004 440.396159391941  396.744913980786 441  396.744913980786 441  C 396.744913980786 441  361.75 441  361.75 441  C 359.09 441  357 438.91  357 436.25  C 357 436.25  357 419.75  357 419.75  C 357 417.09  359.09 415  361.75 415  C 361.75 415  396.744913980786 415  396.744913980786 415  Z " fill-rule="nonzero" fill="#ffffff" stroke="none" />
  </g>
</svg>