<?xml version="1.0" encoding="utf-8"?>
<svg version="1.1" xmlns:xlink="http://www.w3.org/1999/xlink" width="52px" height="28px" xmlns="http://www.w3.org/2000/svg">
  <g transform="matrix(1 0 0 1 -1812 -413 )">
    <path d="M 1823.28262902882 414.5  C 1823.28262902882 414.5  1821.31837421249 415.028837835165  1821.31837421249 415.028837835165  C 1821.31837421249 415.028837835165  1813.7269055226 427  1813.7269055226 427  C 1813.7269055226 427  1821.31837421249 438.971162164835  1821.31837421249 438.971162164835  C 1821.31837421249 438.971162164835  1823.28262902882 439.5  1823.28262902882 439.5  C 1823.28262902882 439.5  1858.25 439.5  1858.25 439.5  C 1860.63 439.5  1862.5 437.63  1862.5 435.25  C 1862.5 435.25  1862.5 418.75  1862.5 418.75  C 1862.5 416.37  1860.63 414.5  1858.25 414.5  C 1858.25 414.5  1823.28262902882 414.5  1823.28262902882 414.5  Z " fill-rule="nonzero" fill="#ffffff" stroke="none" fill-opacity="0" />
    <path d="M 1823.25508601921 414  C 1823.25508601921 414  1821.012249475 414.603840608059  1821.012249475 414.603840608059  C 1821.012249475 414.603840608059  1813.1512703484 427  1813.1512703484 427  C 1813.1512703484 427  1821.012249475 439.396159391941  1821.012249475 439.396159391941  C 1821.012249475 439.396159391941  1823.25508601921 440  1823.25508601921 440  C 1823.25508601921 440  1858.25 440  1858.25 440  C 1860.91 440  1863 437.91  1863 435.25  C 1863 435.25  1863 418.75  1863 418.75  C 1863 416.09  1860.91 414  1858.25 414  C 1858.25 414  1823.25508601921 414  1823.25508601921 414  Z " stroke-width="2" stroke="#ffffff" fill="none" />
  </g>
</svg>