<?xml version="1.0" encoding="utf-8"?>
<svg version="1.1" xmlns:xlink="http://www.w3.org/1999/xlink" width="52px" height="28px" xmlns="http://www.w3.org/2000/svg">
  <g transform="matrix(1 0 0 1 -2052 -413 )">
    <path d="M 2092.71737097118 414.5  C 2092.71737097118 414.5  2094.68162578751 415.028837835165  2094.68162578751 415.028837835165  C 2094.68162578751 415.028837835165  2102.2730944774 427  2102.2730944774 427  C 2102.2730944774 427  2094.68162578751 438.971162164835  2094.68162578751 438.971162164835  C 2094.68162578751 438.971162164835  2092.71737097118 439.5  2092.71737097118 439.5  C 2092.71737097118 439.5  2057.75 439.5  2057.75 439.5  C 2055.37 439.5  2053.5 437.63  2053.5 435.25  C 2053.5 435.25  2053.5 418.75  2053.5 418.75  C 2053.5 416.37  2055.37 414.5  2057.75 414.5  C 2057.75 414.5  2092.71737097118 414.5  2092.71737097118 414.5  Z " fill-rule="nonzero" fill="#ffffff" stroke="none" fill-opacity="0" />
    <path d="M 2092.74491398079 414  C 2092.74491398079 414  2094.987750525 414.603840608059  2094.987750525 414.603840608059  C 2094.987750525 414.603840608059  2102.8487296516 427  2102.8487296516 427  C 2102.8487296516 427  2094.987750525 439.396159391941  2094.987750525 439.396159391941  C 2094.987750525 439.396159391941  2092.74491398079 440  2092.74491398079 440  C 2092.74491398079 440  2057.75 440  2057.75 440  C 2055.09 440  2053 437.91  2053 435.25  C 2053 435.25  2053 418.75  2053 418.75  C 2053 416.09  2055.09 414  2057.75 414  C 2057.75 414  2092.74491398079 414  2092.74491398079 414  Z " stroke-width="2" stroke="#ffffff" fill="none" />
  </g>
</svg>