<?xml version="1.0" encoding="utf-8"?>
<svg version="1.1" xmlns:xlink="http://www.w3.org/1999/xlink" width="28px" height="24px" xmlns="http://www.w3.org/2000/svg">
  <g transform="matrix(1 0 0 1 -373 -431 )">
    <path d="M 0 19.6363636363636  L 6.41666666666667 19.6363636363636  L 6.41666666666667 21.8181818181818  L 0 21.8181818181818  L 0 19.6363636363636  Z M 8.16666666666667 17.4545454545455  L 12.8333333333333 17.4545454545455  C 13.1493055555556 17.4545454545455  13.4227430555556 17.5625  13.6536458333333 17.7784090909091  C 13.8845486111111 17.9943181818182  14 18.25  14 18.5454545454545  L 14 22.9090909090909  C 14 23.2045454545455  13.8845486111111 23.4602272727273  13.6536458333333 23.6761363636364  C 13.4227430555556 23.8920454545455  13.1493055555556 24  12.8333333333333 24  L 8.16666666666667 24  C 7.85069444444445 24  7.57725694444445 23.8920454545455  7.34635416666667 23.6761363636364  C 7.11545138888889 23.4602272727273  7 23.2045454545455  7 22.9090909090909  L 7 18.5454545454545  C 7 18.25  7.11545138888889 17.9943181818182  7.34635416666667 17.7784090909091  C 7.57725694444445 17.5625  7.85069444444445 17.4545454545455  8.16666666666667 17.4545454545455  Z M 0 11  L 15.75 11  L 15.75 13  L 0 13  L 0 11  Z M 0 2.18181818181818  L 4.08333333333333 2.18181818181818  L 4.08333333333333 4.36363636363636  L 0 4.36363636363636  L 0 2.18181818181818  Z M 14.5833333333333 19.6363636363636  L 28 19.6363636363636  L 28 21.8181818181818  L 14.5833333333333 21.8181818181818  L 14.5833333333333 19.6363636363636  Z M 5.83333333333333 0  L 10.5 0  C 10.8159722222222 0  11.0894097222222 0.107954545454543  11.3203125 0.323863636363638  C 11.5512152777778 0.539772727272724  11.6666666666667 0.795454545454544  11.6666666666667 1.09090909090909  L 11.6666666666667 5.45454545454546  C 11.6666666666667 5.75  11.5512152777778 6.00568181818182  11.3203125 6.22159090909091  C 11.0894097222222 6.4375  10.8159722222222 6.54545454545455  10.5 6.54545454545455  L 5.83333333333333 6.54545454545455  C 5.51736111111111 6.54545454545455  5.24392361111111 6.4375  5.01302083333333 6.22159090909091  C 4.78211805555556 6.00568181818182  4.66666666666667 5.75  4.66666666666667 5.45454545454546  L 4.66666666666667 1.09090909090909  C 4.66666666666667 0.795454545454544  4.78211805555556 0.539772727272724  5.01302083333333 0.323863636363638  C 5.24392361111111 0.107954545454543  5.51736111111111 0  5.83333333333333 0  Z M 17.5 8.72727272727273  L 22.1666666666667 8.72727272727273  C 22.4826388888889 8.72727272727273  22.7560763888889 8.83522727272727  22.9869791666667 9.05113636363636  C 23.2178819444444 9.26704545454545  23.3333333333333 9.52272727272727  23.3333333333333 9.81818181818182  L 23.3333333333333 14.1818181818182  C 23.3333333333333 14.4772727272727  23.2178819444444 14.7329545454545  22.9869791666667 14.9488636363636  C 22.7560763888889 15.1647727272727  22.4826388888889 15.2727272727273  22.1666666666667 15.2727272727273  L 17.5 15.2727272727273  C 17.1840277777778 15.2727272727273  16.9105902777778 15.1647727272727  16.6796875 14.9488636363636  C 16.4487847222222 14.7329545454545  16.3333333333333 14.4772727272727  16.3333333333333 14.1818181818182  L 16.3333333333333 9.81818181818182  C 16.3333333333333 9.52272727272727  16.4487847222222 9.26704545454545  16.6796875 9.05113636363636  C 16.9105902777778 8.83522727272727  17.1840277777778 8.72727272727273  17.5 8.72727272727273  Z M 23.9166666666667 10.9090909090909  L 28 10.9090909090909  L 28 13.0909090909091  L 23.9166666666667 13.0909090909091  L 23.9166666666667 10.9090909090909  Z M 12.25 2.18181818181818  L 28 2.18181818181818  L 28 4.36363636363636  L 12.25 4.36363636363636  L 12.25 2.18181818181818  Z " fill-rule="nonzero" fill="#ffffff" stroke="none" transform="matrix(1 0 0 1 373 431 )" />
  </g>
</svg>