<?xml version="1.0" encoding="utf-8"?>
<svg version="1.1" xmlns:xlink="http://www.w3.org/1999/xlink" width="47px" height="40px" xmlns="http://www.w3.org/2000/svg">
  <g transform="matrix(1 0 0 1 -601 -678 )">
    <path d="M 33.505859375 5.14322916666667  C 30.4022507440476 3.93663194444444  27.0669642857143 3.33333333333333  23.5 3.33333333333333  C 19.9330357142857 3.33333333333333  16.5977492559524 3.93663194444444  13.494140625 5.14322916666667  C 10.3905319940476 6.34982638888889  7.92513020833333 7.97743055555555  6.09793526785714 10.0260416666667  C 4.27074032738095 12.0746527777778  3.35714285714286 14.2881944444444  3.35714285714286 16.6666666666667  C 3.35714285714286 18.6111111111111  3.98223586309524 20.4644097222222  5.232421875 22.2265625  C 6.48260788690476 23.9887152777778  8.24423363095238 25.5121527777778  10.5172991071429 26.796875  L 12.7991071428571 28.0989583333333  L 12.0909598214286 30.5989583333333  C 11.6713169642857 32.1788194444444  11.059337797619 33.671875  10.2550223214286 35.078125  C 12.9127604166667 33.984375  15.3169642857143 32.5  17.4676339285714 30.625  L 18.5954241071429 29.6354166666667  L 20.0904017857143 29.7916666666667  C 21.296875 29.9305555555556  22.4334077380952 30  23.5 30  C 27.0669642857143 30  30.4022507440476 29.3967013888889  33.505859375 28.1901041666667  C 36.6094680059524 26.9835069444444  39.0748697916667 25.3559027777778  40.9020647321429 23.3072916666667  C 42.7292596726191 21.2586805555556  43.6428571428571 19.0451388888889  43.6428571428571 16.6666666666667  C 43.6428571428571 14.2881944444444  42.7292596726191 12.0746527777778  40.9020647321429 10.0260416666667  C 39.0748697916667 7.97743055555555  36.6094680059524 6.34982638888889  33.505859375 5.14322916666667  Z M 43.8526785714286 8.29427083333334  C 45.9508928571429 10.8550347222222  47 13.6458333333333  47 16.6666666666667  C 47 19.6875  45.9508928571429 22.4782986111111  43.8526785714286 25.0390625  C 41.7544642857143 27.5998263888889  38.9043898809524 29.6223958333333  35.3024553571429 31.1067708333333  C 31.7005208333333 32.5911458333333  27.766369047619 33.3333333333333  23.5 33.3333333333333  C 22.2760416666667 33.3333333333333  21.0083705357143 33.2638888888889  19.6969866071429 33.125  C 16.2349330357143 36.1631944444444  12.2133556547619 38.2638888888889  7.63225446428571 39.4270833333333  C 6.77548363095238 39.6701388888889  5.7788318452381 39.8611111111111  4.64229910714286 40  L 4.51116071428571 40  C 4.24888392857143 40  4.01283482142857 39.9088541666667  3.80301339285714 39.7265625  C 3.59319196428571 39.5442708333333  3.45331101190476 39.3055555555556  3.38337053571429 39.0104166666667  L 3.38337053571429 38.984375  C 3.33091517857143 38.9149305555556  3.32654389880952 38.8107638888889  3.37025669642857 38.671875  C 3.41396949404762 38.5329861111111  3.43145461309524 38.4461805555556  3.42271205357143 38.4114583333333  C 3.41396949404762 38.3767361111111  3.45331101190476 38.2942708333333  3.54073660714286 38.1640625  L 3.69810267857143 37.9296875  C 3.69810267857143 37.9296875  3.7593005952381 37.8559027777778  3.88169642857143 37.7083333333333  C 4.00409226190476 37.5607638888889  4.07403273809524 37.4826388888889  4.09151785714286 37.4739583333333  C 4.21391369047619 37.3350694444444  4.48493303571429 37.0355902777778  4.90457589285714 36.5755208333333  C 5.32421875 36.1154513888889  5.62583705357143 35.7855902777778  5.80943080357143 35.5859375  C 5.99302455357143 35.3862847222222  6.26404389880952 35.0434027777778  6.62248883928571 34.5572916666667  C 6.98093377976191 34.0711805555556  7.26506696428571 33.6284722222222  7.47488839285714 33.2291666666667  C 7.68470982142857 32.8298611111111  7.92075892857143 32.3177083333333  8.18303571428571 31.6927083333333  C 8.4453125 31.0677083333333  8.67261904761905 30.4079861111111  8.86495535714286 29.7135416666667  C 6.11979166666667 28.1684027777778  3.95600818452381 26.2586805555556  2.37360491071429 23.984375  C 0.791201636904762 21.7100694444444  0 19.2708333333333  0 16.6666666666667  C 0 13.6458333333333  1.04910714285714 10.8550347222222  3.14732142857143 8.29427083333334  C 5.24553571428572 5.73350694444444  8.09561011904762 3.7109375  11.6975446428571 2.2265625  C 15.2994791666667 0.7421875  19.233630952381 0  23.5 0  C 27.766369047619 0  31.7005208333333 0.7421875  35.3024553571429 2.2265625  C 38.9043898809524 3.7109375  41.7544642857143 5.73350694444444  43.8526785714286 8.29427083333334  Z " fill-rule="nonzero" fill="#ffffff" stroke="none" transform="matrix(1 0 0 1 601 678 )" />
  </g>
</svg>