<?xml version="1.0" encoding="utf-8"?>
<svg version="1.1" xmlns:xlink="http://www.w3.org/1999/xlink" width="22px" height="20px" xmlns="http://www.w3.org/2000/svg">
  <g transform="matrix(1 0 0 1 -371 -185 )">
    <path d="M 21.7278645833333 16.296875  C 21.9092881944444 16.4947916666667  22 16.7291666666667  22 17  L 22 19  C 22 19.2708333333333  21.9092881944444 19.5052083333333  21.7278645833333 19.703125  C 21.5464409722222 19.9010416666667  21.3315972222222 20  21.0833333333333 20  L 0.916666666666667 20  C 0.668402777777778 20  0.453559027777778 19.9010416666667  0.272135416666667 19.703125  C 0.0907118055555556 19.5052083333333  0 19.2708333333333  0 19  L 0 17  C 0 16.7291666666667  0.0907118055555556 16.4947916666667  0.272135416666667 16.296875  C 0.453559027777778 16.0989583333333  0.668402777777778 16  0.916666666666667 16  L 21.0833333333333 16  C 21.3315972222222 16  21.5464409722222 16.0989583333333  21.7278645833333 16.296875  Z M 21.7278645833333 8.296875  C 21.9092881944444 8.49479166666667  22 8.72916666666667  22 9  L 22 11  C 22 11.2708333333333  21.9092881944444 11.5052083333333  21.7278645833333 11.703125  C 21.5464409722222 11.9010416666667  21.3315972222222 12  21.0833333333333 12  L 0.916666666666667 12  C 0.668402777777778 12  0.453559027777778 11.9010416666667  0.272135416666667 11.703125  C 0.0907118055555556 11.5052083333333  0 11.2708333333333  0 11  L 0 9  C 0 8.72916666666667  0.0907118055555556 8.49479166666667  0.272135416666667 8.296875  C 0.453559027777778 8.09895833333334  0.668402777777778 8  0.916666666666667 8  L 21.0833333333333 8  C 21.3315972222222 8  21.5464409722222 8.09895833333334  21.7278645833333 8.296875  Z M 21.7278645833333 0.296875000000001  C 21.9092881944444 0.494791666666665  22 0.729166666666665  22 1  L 22 3  C 22 3.27083333333333  21.9092881944444 3.50520833333333  21.7278645833333 3.703125  C 21.5464409722222 3.90104166666666  21.3315972222222 4  21.0833333333333 4  L 0.916666666666667 4  C 0.668402777777778 4  0.453559027777778 3.90104166666666  0.272135416666667 3.703125  C 0.0907118055555556 3.50520833333333  0 3.27083333333333  0 3  L 0 1  C 0 0.729166666666665  0.0907118055555556 0.494791666666665  0.272135416666667 0.296875000000001  C 0.453559027777778 0.0989583333333321  0.668402777777778 0  0.916666666666667 0  L 21.0833333333333 0  C 21.3315972222222 0  21.5464409722222 0.0989583333333321  21.7278645833333 0.296875000000001  Z " fill-rule="nonzero" fill="#ffffff" stroke="none" transform="matrix(1 0 0 1 371 185 )" />
  </g>
</svg>