<?xml version="1.0" encoding="utf-8"?>
<svg version="1.1" xmlns:xlink="http://www.w3.org/1999/xlink" width="15px" height="20px" xmlns="http://www.w3.org/2000/svg">
  <g transform="matrix(1 0 0 1 -642 -463 )">
    <path d="M 10.1513671875 9.0234375  C 10.8837890625 8.37239583333333  11.25 7.58680555555556  11.25 6.66666666666667  C 11.25 5.74652777777778  10.8837890625 4.9609375  10.1513671875 4.30989583333333  C 9.4189453125 3.65885416666667  8.53515625 3.33333333333333  7.5 3.33333333333333  C 6.46484375 3.33333333333333  5.5810546875 3.65885416666667  4.8486328125 4.30989583333333  C 4.1162109375 4.9609375  3.75 5.74652777777778  3.75 6.66666666666667  C 3.75 7.58680555555556  4.1162109375 8.37239583333333  4.8486328125 9.0234375  C 5.5810546875 9.67447916666667  6.46484375 10  7.5 10  C 8.53515625 10  9.4189453125 9.67447916666667  10.1513671875 9.0234375  Z M 12.802734375 1.953125  C 14.267578125 3.25520833333333  15 4.82638888888889  15 6.66666666666667  C 15 7.61284722222222  14.8388671875 8.38975694444444  14.5166015625 8.99739583333333  L 9.1845703125 19.0755208333333  C 9.0283203125 19.3619791666667  8.79638671875 19.5876736111111  8.48876953125 19.7526041666667  C 8.18115234375 19.9175347222222  7.8515625 20  7.5 20  C 7.1484375 20  6.81884765625 19.9175347222222  6.51123046875 19.7526041666667  C 6.20361328125 19.5876736111111  5.9765625 19.3619791666667  5.830078125 19.0755208333333  L 0.4833984375 8.99739583333333  C 0.1611328125 8.38975694444444  0 7.61284722222222  0 6.66666666666667  C 0 4.82638888888889  0.732421875 3.25520833333333  2.197265625 1.953125  C 3.662109375 0.651041666666667  5.4296875 0  7.5 0  C 9.5703125 0  11.337890625 0.651041666666667  12.802734375 1.953125  Z " fill-rule="nonzero" fill="#ffffff" stroke="none" transform="matrix(1 0 0 1 642 463 )" />
  </g>
</svg>