<?xml version="1.0" encoding="utf-8"?>
<svg version="1.1" xmlns:xlink="http://www.w3.org/1999/xlink" width="47px" height="40px" xmlns="http://www.w3.org/2000/svg">
  <g transform="matrix(1 0 0 1 -532 -677 )">
    <path d="M 17.0036057692308 33.8068181818182  C 17.7191506410256 34.5265151515151  18.0769230769231 35.3787878787879  18.0769230769231 36.3636363636364  C 18.0769230769231 37.3484848484849  17.7191506410256 38.2007575757576  17.0036057692308 38.9204545454545  C 16.2880608974359 39.6401515151515  15.4407051282051 40  14.4615384615385 40  C 13.4823717948718 40  12.635016025641 39.6401515151515  11.9194711538462 38.9204545454545  C 11.2039262820513 38.2007575757576  10.8461538461538 37.3484848484849  10.8461538461538 36.3636363636364  C 10.8461538461538 35.3787878787879  11.2039262820513 34.5265151515151  11.9194711538462 33.8068181818182  C 12.635016025641 33.0871212121212  13.4823717948718 32.7272727272727  14.4615384615385 32.7272727272727  C 15.4407051282051 32.7272727272727  16.2880608974359 33.0871212121212  17.0036057692308 33.8068181818182  Z M 42.3112980769231 33.8068181818182  C 43.0268429487179 34.5265151515151  43.3846153846154 35.3787878787879  43.3846153846154 36.3636363636364  C 43.3846153846154 37.3484848484849  43.0268429487179 38.2007575757576  42.3112980769231 38.9204545454545  C 41.5957532051282 39.6401515151515  40.7483974358974 40  39.7692307692308 40  C 38.7900641025641 40  37.9427083333333 39.6401515151515  37.2271634615385 38.9204545454545  C 36.5116185897436 38.2007575757576  36.1538461538462 37.3484848484849  36.1538461538462 36.3636363636364  C 36.1538461538462 35.3787878787879  36.5116185897436 34.5265151515151  37.2271634615385 33.8068181818182  C 37.9427083333333 33.0871212121212  38.7900641025641 32.7272727272727  39.7692307692308 32.7272727272727  C 40.7483974358974 32.7272727272727  41.5957532051282 33.0871212121212  42.3112980769231 33.8068181818182  Z M 46.4633413461538 4.17613636363636  C 46.8211137820513 4.53598484848484  47 4.96212121212121  47 5.45454545454545  L 47 20  C 47 20.4545454545455  46.8446514423077 20.8570075757576  46.5339543269231 21.2073863636364  C 46.2232572115385 21.5577651515151  45.8419471153846 21.7613636363636  45.3900240384615 21.8181818181818  L 15.9020432692308 25.2840909090909  C 16.1468349358974 26.4204545454545  16.2692307692308 27.0833333333333  16.2692307692308 27.2727272727273  C 16.2692307692308 27.5757575757576  16.0432692307692 28.1818181818182  15.5913461538462 29  L 41.5769230769231 29  C 42.0665064102564 29.0909090909091  42.4901842948718 29.2708333333333  42.8479567307692 29.6306818181818  C 43.2057291666667 29.9905303030303  43.3846153846154 30.4166666666667  43.3846153846154 30.9090909090909  C 43.3846153846154 31.4015151515151  43.2057291666667 31.8276515151515  42.8479567307692 32.1875  C 42.4901842948718 32.5473484848485  42.0665064102564 32.7272727272727  41.5769230769231 32  L 12.6538461538462 32  C 12.1642628205128 32.7272727272727  11.7405849358974 32.5473484848485  11.3828125 32.1875  C 11.0250400641026 31.8276515151515  10.8461538461538 31.4015151515151  10.8461538461538 30.9090909090909  C 10.8461538461538 30.7007575757576  10.9214743589744 30.4024621212121  11.0721153846154 30.0142045454545  C 11.2227564102564 29.625946969697  11.3733974358974 29.2850378787879  11.5240384615385 28.9914772727273  C 11.6746794871795 28.6979166666667  11.8771033653846 28.3191287878788  12.1313100961538 27.8551136363636  C 12.3855168269231 27.3910984848485  12.5314503205128 27.1117424242424  12.5691105769231 27.0170454545455  L 7.56971153846154 3.63636363636364  L 1.80769230769231 3.63636363636364  C 1.31810897435897 3.63636363636364  0.89443108974359 3.45643939393939  0.536658653846154 3.09659090909091  C 0.178886217948718 2.73674242424242  0 2.31060606060606  0 1.81818181818182  C 0 1.32575757575757  0.178886217948718 0.899621212121207  0.536658653846154 0.539772727272729  C 0.89443108974359 0.179924242424239  1.31810897435897 0  1.80769230769231 0  L 9.03846153846154 0  C 9.33974358974359 0  9.60807291666667 0.0615530303030276  9.84344951923077 0.184659090909092  C 10.0788261217949 0.307765151515151  10.2624198717949 0.454545454545454  10.3942307692308 0.625  C 10.5260416666667 0.795454545454546  10.6484375 1.02746212121211  10.7614182692308 1.32102272727273  C 10.8743990384615 1.61458333333333  10.9497195512821 1.86079545454545  10.9873798076923 2.05965909090909  C 11.0250400641026 2.25852272727273  11.0768229166667 2.53787878787878  11.1427283653846 2.89772727272727  C 11.2086338141026 3.25757575757575  11.2510016025641 3.50378787878788  11.2698317307692 4  L 45.1923076923077 4  C 45.681891025641 3.63636363636364  46.1055689102564 3.81628787878788  46.4633413461538 4.17613636363636  Z " fill-rule="nonzero" fill="#ffffff" stroke="none" transform="matrix(1 0 0 1 532 677 )" />
  </g>
</svg>