<?xml version="1.0" encoding="utf-8"?>
<svg version="1.1" xmlns:xlink="http://www.w3.org/1999/xlink" width="27px" height="31px" xmlns="http://www.w3.org/2000/svg">
  <g transform="matrix(1 0 0 1 -625 -557 )">
    <path d="M 11.8125 25.9544270833333  C 12.1171875 25.9544270833333  12.380859375 25.8266059027778  12.603515625 25.5709635416667  L 20.583984375 16.408203125  C 20.806640625 16.1525607638889  20.91796875 15.8498263888889  20.91796875 15.5  C 20.91796875 15.1501736111111  20.806640625 14.8474392361111  20.583984375 14.591796875  L 12.603515625 5.42903645833333  C 12.380859375 5.17339409722222  12.1171875 5.04557291666667  11.8125 5.04557291666667  C 11.5078125 5.04557291666667  11.244140625 5.17339409722222  11.021484375 5.42903645833333  L 9.228515625 7.48763020833333  C 9.005859375 7.74327256944444  8.89453125 8.04600694444444  8.89453125 8.39583333333333  C 8.89453125 8.74565972222222  9.005859375 9.04839409722222  9.228515625 9.30403645833333  L 14.625 15.5  L 9.228515625 21.6959635416667  C 9.005859375 21.9516059027778  8.89453125 22.2543402777778  8.89453125 22.6041666666667  C 8.89453125 22.9539930555556  9.005859375 23.2567274305556  9.228515625 23.5123697916667  L 11.021484375 25.5709635416667  C 11.244140625 25.8266059027778  11.5078125 25.9544270833333  11.8125 25.9544270833333  Z M 25.189453125 7.7197265625  C 26.396484375 10.0945095486111  27 12.6879340277778  27 15.5  C 27 18.3120659722222  26.396484375 20.9054904513889  25.189453125 23.2802734375  C 23.982421875 25.6550564236111  22.3447265625 27.5353732638889  20.2763671875 28.9212239583333  C 18.2080078125 30.3070746527778  15.94921875 31  13.5 31  C 11.05078125 31  8.7919921875 30.3070746527778  6.7236328125 28.9212239583333  C 4.6552734375 27.5353732638889  3.017578125 25.6550564236111  1.810546875 23.2802734375  C 0.603515625 20.9054904513889  0 18.3120659722222  0 15.5  C 0 12.6879340277778  0.603515625 10.0945095486111  1.810546875 7.7197265625  C 3.017578125 5.34494357638889  4.6552734375 3.46462673611111  6.7236328125 2.07877604166667  C 8.7919921875 0.69292534722222  11.05078125 0  13.5 0  C 15.94921875 0  18.2080078125 0.69292534722222  20.2763671875 2.07877604166667  C 22.3447265625 3.46462673611111  23.982421875 5.34494357638889  25.189453125 7.7197265625  Z " fill-rule="nonzero" fill="#ffffff" stroke="none" transform="matrix(1 0 0 1 625 557 )" />
  </g>
</svg>