<?xml version="1.0" encoding="utf-8"?>
<svg version="1.1" xmlns:xlink="http://www.w3.org/1999/xlink" width="27px" height="31px" xmlns="http://www.w3.org/2000/svg">
  <g transform="matrix(1 0 0 1 -378 -557 )">
    <path d="M 15.1875 25.9544270833333  C 15.4921875 25.9544270833333  15.755859375 25.8266059027778  15.978515625 25.5709635416667  L 17.771484375 23.5123697916667  C 17.994140625 23.2567274305556  18.10546875 22.9539930555556  18.10546875 22.6041666666667  C 18.10546875 22.2543402777778  17.994140625 21.9516059027778  17.771484375 21.6959635416667  L 12.375 15.5  L 17.771484375 9.30403645833333  C 17.994140625 9.04839409722222  18.10546875 8.74565972222222  18.10546875 8.39583333333333  C 18.10546875 8.04600694444444  17.994140625 7.74327256944444  17.771484375 7.48763020833333  L 15.978515625 5.42903645833333  C 15.755859375 5.17339409722222  15.4921875 5.04557291666667  15.1875 5.04557291666667  C 14.8828125 5.04557291666667  14.619140625 5.17339409722222  14.396484375 5.42903645833333  L 6.416015625 14.591796875  C 6.193359375 14.8474392361111  6.08203125 15.1501736111111  6.08203125 15.5  C 6.08203125 15.8498263888889  6.193359375 16.1525607638889  6.416015625 16.408203125  L 14.396484375 25.5709635416667  C 14.619140625 25.8266059027778  14.8828125 25.9544270833333  15.1875 25.9544270833333  Z M 25.189453125 7.7197265625  C 26.396484375 10.0945095486111  27 12.6879340277778  27 15.5  C 27 18.3120659722222  26.396484375 20.9054904513889  25.189453125 23.2802734375  C 23.982421875 25.6550564236111  22.3447265625 27.5353732638889  20.2763671875 28.9212239583333  C 18.2080078125 30.3070746527778  15.94921875 31  13.5 31  C 11.05078125 31  8.7919921875 30.3070746527778  6.7236328125 28.9212239583333  C 4.6552734375 27.5353732638889  3.017578125 25.6550564236111  1.810546875 23.2802734375  C 0.603515625 20.9054904513889  0 18.3120659722222  0 15.5  C 0 12.6879340277778  0.603515625 10.0945095486111  1.810546875 7.7197265625  C 3.017578125 5.34494357638889  4.6552734375 3.46462673611111  6.7236328125 2.07877604166667  C 8.7919921875 0.69292534722222  11.05078125 0  13.5 0  C 15.94921875 0  18.2080078125 0.69292534722222  20.2763671875 2.07877604166667  C 22.3447265625 3.46462673611111  23.982421875 5.34494357638889  25.189453125 7.7197265625  Z " fill-rule="nonzero" fill="#ffffff" stroke="none" transform="matrix(1 0 0 1 378 557 )" />
  </g>
</svg>