<?xml version="1.0" encoding="utf-8"?>
<svg version="1.1" xmlns:xlink="http://www.w3.org/1999/xlink" width="19px" height="20px" xmlns="http://www.w3.org/2000/svg">
  <g transform="matrix(1 0 0 1 -609 -463 )">
    <path d="M 8.0341796875 11.6908482142857  C 8.08778211805556 11.8731398809524  8.10633680555556 11.9866071428571  8.08984375 12.03125  C 8.08159722222222 12.0535714285714  8.03005642361111 12.0517113095238  7.93522135416667 12.0256696428571  C 7.84038628472222 11.9996279761905  7.71050347222222 11.9568452380952  7.54557291666667 11.8973214285714  L 7.29817708333333 11.796875  C 6.93532986111111 11.6480654761905  6.57660590277778 11.4657738095238  6.22200520833333 11.25  C 6.16427951388889 11.2127976190476  5.99522569444444 11.0956101190476  5.71484375 10.8984375  C 5.43446180555556 10.7012648809524  5.27777777777778 10.5952380952381  5.24479166666667 10.5803571428571  C 4.69227430555556 11.3467261904762  4.13975694444444 12.0200892857143  3.58723958333333 12.6004464285714  C 2.91927083333333 13.3072916666667  2.486328125 13.7165178571429  2.28841145833333 13.828125  C 2.25542534722222 13.843005952381  2.17502170138889 13.8578869047619  2.04720052083333 13.8727678571429  C 1.91937934027778 13.8876488095238  1.84309895833333 13.8876488095238  1.818359375 13.8727678571429  C 1.86783854166667 13.843005952381  2.20594618055556 13.500744047619  2.83268229166667 12.8459821428571  C 3.005859375 12.6674107142857  3.3583984375 12.2395833333333  3.89029947916667 11.5625  C 4.42220052083333 10.8854166666667  4.74587673611111 10.4464285714286  4.861328125 10.2455357142857  C 5.00151909722222 10.0223214285714  5.21180555555556 9.65587797619048  5.4921875 9.14620535714286  C 5.77256944444444 8.63653273809524  5.92100694444444 8.34821428571429  5.9375 8.28125  C 5.87152777777778 8.27380952380952  5.41796875 8.39657738095238  4.57682291666667 8.64955357142857  C 4.51085069444444 8.66443452380952  4.3974609375 8.69233630952381  4.23665364583333 8.73325892857143  C 4.07584635416667 8.77418154761905  3.93359375 8.80952380952381  3.80989583333333 8.83928571428571  C 3.68619791666667 8.86904761904762  3.61610243055556 8.88764880952381  3.599609375 8.89508928571429  C 3.58311631944444 8.90997023809524  3.57486979166667 8.94903273809524  3.57486979166667 9.01227678571429  C 3.57486979166667 9.07552083333333  3.57074652777778 9.11086309523809  3.5625 9.11830357142857  C 3.52126736111111 9.19270833333333  3.39344618055556 9.24851190476191  3.17903645833333 9.28571428571429  C 2.98936631944444 9.33779761904762  2.79557291666667 9.33779761904762  2.59765625 9.28571428571429  C 2.44921875 9.25595238095238  2.33376736111111 9.17782738095238  2.25130208333333 9.05133928571429  C 2.21831597222222 9.00669642857143  2.19769965277778 8.92113095238095  2.189453125 8.79464285714286  C 2.23893229166667 8.77976190476191  2.33995225694444 8.76116071428571  2.49251302083333 8.73883928571429  C 2.64507378472222 8.71651785714286  2.76671006944444 8.69419642857143  2.857421875 8.671875  C 3.33572048611111 8.55282738095238  3.76866319444444 8.43377976190476  4.15625 8.31473214285714  C 4.98090277777778 8.05431547619047  5.40147569444444 7.92410714285714  5.41796875 7.92410714285714  C 5.50043402777778 7.90922619047619  5.677734375 7.83668154761905  5.94986979166667 7.70647321428571  C 6.22200520833333 7.57626488095238  6.40342881944444 7.49627976190476  6.494140625 7.46651785714286  C 6.568359375 7.44419642857143  6.65700954861111 7.41443452380952  6.76009114583333 7.37723214285714  C 6.86317274305556 7.34002976190476  6.92296006944444 7.31956845238095  6.939453125 7.31584821428571  C 6.95594618055556 7.31212797619047  6.98068576388889 7.31398809523809  7.013671875 7.32142857142857  C 7.03016493055556 7.41071428571429  7.02604166666667 7.53348214285714  7.00130208333333 7.68973214285714  C 7.00130208333333 7.70461309523809  6.94976128472222 7.80505952380952  6.8466796875 7.99107142857143  C 6.74359809027778 8.17708333333333  6.63433159722222 8.37611607142857  6.51888020833333 8.58816964285714  C 6.40342881944444 8.80022321428571  6.33333333333333 8.92485119047619  6.30859375 8.96205357142857  C 6.10243055555556 9.33407738095238  5.78493923611111 9.82142857142857  5.35611979166667 10.4241071428571  L 6.14778645833333 10.7366071428571  C 6.24674479166667 10.78125  6.55392795138889 10.9002976190476  7.0693359375 11.09375  C 7.58474392361111 11.2872023809524  7.86306423611111 11.391369047619  7.904296875 11.40625  C 7.93728298611111 11.4136904761905  7.98057725694444 11.508556547619  8.0341796875 11.6908482142857  Z M 5.29427083333333 6.41741071428571  C 5.43446180555556 6.41741071428571  5.52105034722222 6.48065476190476  5.55403645833333 6.60714285714286  C 5.57877604166667 6.71875  5.56228298611111 6.82291666666667  5.50455729166667 6.91964285714286  C 5.40559895833333 7.09077380952381  5.19943576388889 7.23214285714286  4.88606770833333 7.34375  C 4.638671875 7.43303571428571  4.39127604166667 7.47767857142857  4.14388020833333 7.47767857142857  C 3.92947048611111 7.45535714285714  3.72743055555556 7.35863095238095  3.53776041666667 7.1875  C 3.42230902777778 7.07589285714286  3.34809027777778 6.92336309523809  3.31510416666667 6.72991071428571  L 3.32747395833333 6.69642857142857  C 3.35221354166667 6.71875  3.4326171875 6.73735119047619  3.56868489583333 6.75223214285714  C 3.70475260416667 6.76711309523809  3.81401909722222 6.76711309523809  3.896484375 6.75223214285714  C 3.97894965277778 6.73735119047619  4.21809895833333 6.67782738095238  4.61393229166667 6.57366071428571  C 4.91080729166667 6.484375  5.13758680555556 6.43229166666667  5.29427083333333 6.41741071428571  Z M 13.248046875 10.1116071428571  L 14.1881510416667 8.046875  L 14.9674479166667 10.5803571428571  L 13.248046875 10.1116071428571  Z M 0.482421875 5.46875  L 0.482421875 16.9754464285714  L 9 14.3861607142857  L 9 2.86830357142857  L 0.482421875 5.46875  Z M 15.3756510416667 11.9308035714286  L 15.8333333333333 13.4375  L 17.0950520833333 13.7834821428571  L 14.8561197916667 6.45089285714286  L 13.619140625 6.10491071428571  L 10.947265625 12.0870535714286  L 12.208984375 12.4330357142857  L 12.765625 11.2053571428571  L 15.3756510416667 11.9308035714286  Z M 16.69921875 0.513392857142858  L 9.611328125 2.70089285714286  L 16.69921875 4.75446428571429  L 16.69921875 0.513392857142858  Z M 13.990234375 18.28125  L 13.4583333333333 17.4665178571429  L 15.4127604166667 17.6116071428571  L 14.7447916666667 19.3973214285714  L 14.25 18.6607142857143  C 13.1779513888889 19.2782738095238  12.0399305555556 19.6800595238095  10.8359375 19.8660714285714  C 10.3576388888889 19.9553571428571  9.982421875 20  9.71028645833333 20  L 8.67122395833333 20  C 8.01974826388889 20  7.19715711805556 19.8549107142857  6.20345052083333 19.5647321428571  C 5.20974392361111 19.2745535714286  4.453125 18.9583333333333  3.93359375 18.6160714285714  C 3.86762152777778 18.5639880952381  3.83463541666667 18.5044642857143  3.83463541666667 18.4375  C 3.83463541666667 18.3779761904762  3.85525173611111 18.3277529761905  3.896484375 18.2868303571429  C 3.93771701388889 18.2459077380952  3.99131944444444 18.2254464285714  4.05729166666667 18.2254464285714  C 4.09027777777778 18.2254464285714  4.16449652777778 18.2533482142857  4.27994791666667 18.3091517857143  C 4.39539930555556 18.3649553571429  4.52115885416667 18.4263392857143  4.6572265625 18.4933035714286  C 4.79329427083333 18.5602678571429  4.87782118055556 18.6011904761905  4.91080729166667 18.6160714285714  C 5.51280381944444 18.891369047619  6.17046440972222 19.1201636904762  6.8837890625 19.3024553571429  C 7.59711371527778 19.4847470238095  8.24652777777778 19.5758928571429  8.83203125 19.5758928571429  C 9.61545138888889 19.5758928571429  10.3040364583333 19.5219494047619  10.8977864583333 19.4140625  C 11.4915364583333 19.3061755952381  12.1388888888889 19.1183035714286  12.83984375 18.8504464285714  C 12.9635416666667 18.7983630952381  13.0893012152778 18.7406994047619  13.2171223958333 18.6774553571429  C 13.3449435763889 18.6142113095238  13.4851345486111 18.5435267857143  13.6376953125 18.4654017857143  C 13.7902560763889 18.3872767857143  13.9077690972222 18.3258928571429  13.990234375 18.28125  Z M 17.181640625 4.89955357142857  L 19 5.42410714285714  L 19 17.4665178571429  L 9.42578125 14.7209821428571  C 9.31032986111111 14.765625  7.76410590277778 15.2399553571429  4.787109375 16.1439732142857  C 1.81011284722222 17.0479910714286  0.292751736111111 17.5  0.235026041666667 17.5  C 0.127821180555556 17.5  0.0536024305555556 17.4516369047619  0.0123697916666667 17.3549107142857  C 0.0123697916666667 17.3474702380952  0.00824652777777778 17.3363095238095  0 17.3214285714286  L 0 5.29017857142857  C 0.0247395833333333 5.22321428571429  0.0412326388888889 5.1860119047619  0.0494791666666667 5.17857142857143  C 0.0907118055555556 5.13392857142857  0.173177083333333 5.09300595238095  0.296875 5.05580357142857  C 1.17925347222222 4.78794642857143  1.79361979166667 4.60193452380952  2.13997395833333 4.49776785714286  L 2.13997395833333 0.212053571428572  L 9.04231770833333 2.421875  C 9.05881076388889 2.421875  9.72059461805556 2.2172619047619  11.0276692708333 1.80803571428571  C 12.3347439236111 1.39880952380952  13.6376953125 0.995163690476188  14.9365234375 0.597098214285714  C 16.2353515625 0.199032738095239  16.9012586805556 0  16.9342447916667 0  C 17.0991753472222 0  17.181640625 0.078125  17.181640625 0.234375  L 17.181640625 4.89955357142857  Z " fill-rule="nonzero" fill="#ffffff" stroke="none" transform="matrix(1 0 0 1 609 463 )" />
  </g>
</svg>