<?xml version="1.0" encoding="utf-8"?>
<svg version="1.1" xmlns:xlink="http://www.w3.org/1999/xlink" width="47px" height="40px" xmlns="http://www.w3.org/2000/svg">
  <g transform="matrix(1 0 0 1 -457 -677 )">
    <path d="M 42.1653645833333 31.0677083333333  C 42.41015625 30.859375  42.6345486111111 30.5034722222222  42.8385416666667 30  L 35.25 30  L 35.25 36.4583333333333  C 35.8415798611111 36.2847222222222  36.259765625 36.09375  36.5045572916667 35.8854166666667  L 42.1653645833333 31.0677083333333  Z M 32.1901041666667 27.3958333333333  C 32.7612847222222 26.9097222222222  33.4548611111111 26.6666666666667  34.2708333333333 26.6666666666667  L 43 26.6666666666667  L 43 4  L 4 4  L 4 36  L 31.3333333333333 36  L 31.3333333333333 29.1666666666667  C 31.3333333333333 28.4722222222222  31.6189236111111 27.8819444444444  32.1901041666667 27.3958333333333  Z M 46.1432291666667 0.729166666666665  C 46.7144097222222 1.21527777777777  47 1.80555555555555  47 2.5  L 47 29.1666666666667  C 47 29.8611111111111  46.7960069444444 30.625  46.3880208333333 31.4583333333333  C 45.9800347222222 32.2916666666667  45.4904513888889 32.9513888888889  44.9192708333333 33.4375  L 39.2890625 38.2291666666667  C 38.7178819444445 38.7152777777778  37.9427083333333 39.1319444444444  36.9635416666667 39.4791666666667  C 35.984375 39.8263888888889  35.0868055555556 40  34.2708333333333 40  L 2.9375 40  C 2.12152777777778 40  1.42795138888889 39.7569444444444  0.856770833333333 39.2708333333333  C 0.285590277777778 38.7847222222222  0 38.1944444444444  0 37.5  L 0 2.5  C 0 1.80555555555555  0.285590277777778 1.21527777777777  0.856770833333333 0.729166666666665  C 1.42795138888889 0.243055555555554  2.12152777777778 0  2.9375 0  L 44.0625 0  C 44.8784722222222 0  45.5720486111111 0.243055555555554  46.1432291666667 0.729166666666665  Z " fill-rule="nonzero" fill="#ffffff" stroke="none" transform="matrix(1 0 0 1 457 677 )" />
  </g>
</svg>