<?xml version="1.0" encoding="utf-8"?>
<svg version="1.1" xmlns:xlink="http://www.w3.org/1999/xlink" width="47px" height="40px" xmlns="http://www.w3.org/2000/svg">
  <g transform="matrix(1 0 0 1 -388 -675 )">
    <path d="M 40.2441140024783 22.8526890101325  C 40.2635274679884 22.8942582488958  40.2732342007435 22.9566121070408  40 23.0397505845674  L 40 38.0046765393609  C 40.2732342007435 38.545076643284  40.0888062783974 39.0127305793713  39.7199504337051 39.4076383476228  C 39.3510945890128 39.8025461158743  38.9142916150351 40  38.409541511772 40  L 27 40  L 27 28.0280592361652  L 20 28.0280592361652  L 20 40  L 8.59045848822801 40  C 8.08570838496489 40  7.6489054109872 39.8025461158743  7.28004956629492 39.4076383476228  C 6.91119372160264 39.0127305793713  6.7267657992565 38.545076643284  7 38.0046765393609  L 7 23.0397505845674  C 6.7267657992565 23.0189659651858  6.73161916563404 22.9877890361133  6.7413258983891 22.94621979735  C 6.75103263114416 22.9046505585866  6.75588599752169 22.8734736295142  6.75588599752169 22.8526890101325  L 23.5 8.07482462977397  L 40.2441140024783 22.8526890101325  Z M 46.9708798017348 20.1558846453624  C 46.9902932672449 20.4364770070148  46.9223461379595 20.6806962847493  46.7670384138786 20.8885424785659  L 44.9615861214374 23.1956352299299  C 44.8062783973565 23.3826968043648  44.6024370095002 23.4970122109639  44.3500619578686 23.5385814497272  L 44.2627013630731 23.5385814497272  C 44.0103263114416 23.5385814497272  43.8064849235853 23.4658352818914  43.6511771995043 23.3203429462198  L 23.5 5.33125487139517  L 3.34882280049566 23.3203429462198  C 3.11586121437423 23.4866199012731  2.88289962825279 23.5593660691089  2.64993804213135 23.5385814497272  C 2.39756299049979 23.4970122109639  2.19372160264354 23.3826968043648  2.03841387856258 23.1956352299299  L 0.232961586121437 20.8885424785659  C 0.0776538620404792 20.6806962847493  0.00970673275505996 20.4364770070148  0.0291201982651797 20.1558846453624  C 0.0485336637752996 19.8752922837101  0.155307724080958 19.6518576253572  0.349442379182156 19.485580670304  L 21.2868649318463 0.810600155884647  C 21.9080958281702 0.270200051961544  22.6458075175547 0  23.5 0  C 24.3541924824453 0  25.0919041718298 0.270200051961544  25.7131350681537 0.810600155884647  L 32.8184634448575 7.17069368667186  L 32.8184634448575 1.09119251753702  C 32.8184634448575 0.800207846193812  32.905824039653 0.561184723304753  33.0805452292441 0.374123148869838  C 33.2552664188352 0.187061574434919  33.4785212722016 0.0935307872174596  33.7503097893432 0.0935307872174596  L 39.3413878562577 0.0935307872174596  C 39.6131763733994 0.0935307872174596  39.8364312267658 0.187061574434919  40.0111524163569 0.374123148869838  C 40.185873605948 0.561184723304753  40.2732342007435 0.800207846193812  40 1.09119251753702  L 40 13.8113795791115  L 46.6505576208178 19.485580670304  C 46.844692275919 19.6518576253572  46.9514663362247 19.8752922837101  46.9708798017348 20.1558846453624  Z " fill-rule="nonzero" fill="#ffffff" stroke="none" transform="matrix(1 0 0 1 388 675 )" />
  </g>
</svg>