<?xml version="1.0" encoding="utf-8"?>
<svg version="1.1" xmlns:xlink="http://www.w3.org/1999/xlink" width="119px" height="81px" xmlns="http://www.w3.org/2000/svg">
  <g transform="matrix(1 0 0 1 -443 -322 )">
    <path d="M 48 23.0785714285714  L 48 55.4142857142857  L 79.3333333333333 39.3428571428571  L 48 23.0785714285714  Z M 17.9096989966555 1.15714285714285  C 29.0092902266815 0.385714285714284  42.872723894463 0  59.5 0  C 66.9292084726867 0  74.1041434411 0.0964285714285711  81.0248049052397 0.289285714285713  C 87.9454663693794 0.482142857142855  93.0198810850985 0.68571428571428  96.2480490523969 0.899999999999997  L 101.090301003344 1.15714285714285  C 101.134522482349 1.15714285714285  101.510405053883 1.18928571428571  102.217948717949 1.25357142857142  C 102.925492382014 1.31785714285715  103.434039390561 1.38214285714286  103.74358974359 1.44642857142858  C 104.053140096618 1.51071428571429  104.572742474916 1.60714285714286  105.302396878484 1.73571428571429  C 106.032051282051 1.86428571428572  106.66220735786 2.03571428571428  107.192865105909 2.25  C 107.723522853958 2.46428571428571  108.342623560015 2.74285714285713  109.05016722408 3.08571428571428  C 109.757710888146 3.42857142857142  110.443143812709 3.84642857142857  111.10646599777 4.33928571428572  C 111.769788182832 4.83214285714285  112.410999628391 5.4  113.030100334448 6.04285714285714  C 113.295429208473 6.3  113.638145670754 6.69642857142856  114.058249721293 7.23214285714286  C 114.478353771832 7.76785714285714  115.119565217391 9.02142857142857  115.981884057971 10.9928571428571  C 116.844202898551 12.9642857142857  117.430137495355 15.1285714285714  117.739687848383 17.4857142857143  C 118.093459680416 20.2285714285714  118.369843924192 23.1535714285714  118.56884057971 26.2607142857143  C 118.767837235229 29.3678571428571  118.88944630249 31.8  118.933667781494 33.5571428571429  L 118.933667781494 36.1285714285714  L 118.933667781494 44.8714285714286  C 118.977889260498 51.0857142857143  118.579895949461 57.3  117.739687848383 63.5142857142857  C 117.430137495355 65.8714285714286  116.877369007804 68.0035714285714  116.08138238573 69.9107142857143  C 115.285395763657 71.8178571428572  114.577852099591 73.1357142857143  113.958751393534 73.8642857142857  L 113.030100334448 74.9571428571429  C 112.410999628391 75.6  111.769788182832 76.1678571428571  111.10646599777 76.6607142857143  C 110.443143812709 77.1535714285714  109.757710888146 77.5607142857143  109.05016722408 77.8821428571429  C 108.342623560015 78.2035714285714  107.723522853958 78.4714285714286  107.192865105909 78.6857142857143  C 106.66220735786 78.9  106.032051282051 79.0714285714286  105.302396878484 79.2  C 104.572742474916 79.3285714285714  104.042084726867 79.425  103.710423634337 79.4892857142857  C 103.378762541806 79.5535714285714  102.870215533259 79.6178571428571  102.184782608696 79.6821428571429  C 101.499349684132 79.7464285714286  101.134522482349 79.7785714285714  101.090301003344 79.7785714285714  C 89.9907097733185 80.5928571428572  76.127276105537 81  59.5 81  C 50.3461538461538 80.9142857142857  42.3973429951691 80.775  35.6535674470457 80.5821428571429  C 28.9097918989223 80.3892857142857  24.4765886287625 80.2285714285714  22.3539576365663 80.1  L 19.1036789297659 79.8428571428571  L 16.7157190635451 79.5857142857143  C 15.123745819398 79.3714285714286  13.9187105165366 79.1571428571428  13.100613154961 78.9428571428571  C 12.2825157933854 78.7285714285714  11.1548680787811 78.2785714285714  9.71767001114827 77.5928571428571  C 8.28047194351542 76.9071428571428  7.03121516164994 76.0285714285714  5.96989966555184 74.9571428571429  C 5.70457079152731 74.7  5.36185432924563 74.3035714285714  4.9417502787068 73.7678571428571  C 4.52164622816797 73.2321428571429  3.8804347826087 71.9785714285714  3.01811594202899 70.0071428571429  C 2.15579710144928 68.0357142857143  1.56986250464511 65.8714285714286  1.2603121516165 63.5142857142857  C 0.906540319583798 60.7714285714286  0.63015607580825 57.8464285714286  0.431159420289855 54.7392857142857  C 0.23216276477146 51.6321428571428  0.110553697510219 49.2  0.0663322185061316 47.4428571428571  L 0.0663322185061316 44.8714285714286  L 0.0663322185061316 36.1285714285714  C 0.0221107395020438 29.9142857142857  0.420104050538833 23.7  1.2603121516165 17.4857142857143  C 1.56986250464511 15.1285714285714  2.12263099219621 12.9964285714286  2.91861761426979 11.0892857142857  C 3.71460423634337 9.18214285714286  4.42214790040877 7.86428571428571  5.041248606466 7.13571428571429  L 5.96989966555184 6.04285714285714  C 6.58900037160907 5.4  7.23021181716834 4.83214285714285  7.89353400222965 4.33928571428572  C 8.55685618729097 3.84642857142857  9.24228911185433 3.42857142857142  9.94983277591973 3.08571428571428  C 10.6573764399851 2.74285714285713  11.2764771460424 2.46428571428571  11.8071348940914 2.25  C 12.3377926421405 2.03571428571428  12.9679487179487 1.86428571428572  13.6976031215162 1.73571428571429  C 14.4272575250836 1.60714285714286  14.9468599033816 1.51071428571429  15.2564102564103 1.44642857142858  C 15.5659606094389 1.38214285714286  16.0745076179859 1.31785714285715  16.7820512820513 1.25357142857142  C 17.4895949461167 1.18928571428571  17.8654775176514 1.15714285714285  17.9096989966555 1.15714285714285  Z " fill-rule="nonzero" fill="#ffffff" stroke="none" transform="matrix(1 0 0 1 443 322 )" />
  </g>
</svg>