<?xml version="1.0" encoding="utf-8"?>
<svg version="1.1" xmlns:xlink="http://www.w3.org/1999/xlink" width="25px" height="27px" xmlns="http://www.w3.org/2000/svg">
  <g transform="matrix(1 0 0 1 -631 -218 )">
    <path d="M 18.017578125 16.3125  C 18.017578125 16.46484375  17.9633246527778 16.599609375  17.8548177083333 16.716796875  L 15.478515625 19.283203125  C 15.3700086805556 19.400390625  15.2452256944444 19.458984375  15.1041666666667 19.458984375  C 14.9631076388889 19.458984375  14.8383246527778 19.400390625  14.7298177083333 19.283203125  L 12.5 16.875  L 10.2701822916667 19.283203125  C 10.1616753472222 19.400390625  10.0368923611111 19.458984375  9.89583333333333 19.458984375  C 9.75477430555556 19.458984375  9.62999131944445 19.400390625  9.521484375 19.283203125  L 7.14518229166667 16.716796875  C 7.03667534722222 16.599609375  6.982421875 16.46484375  6.982421875 16.3125  C 6.982421875 16.16015625  7.03667534722222 16.025390625  7.14518229166667 15.908203125  L 9.375 13.5  L 7.14518229166667 11.091796875  C 7.03667534722222 10.974609375  6.982421875 10.83984375  6.982421875 10.6875  C 6.982421875 10.53515625  7.03667534722222 10.400390625  7.14518229166667 10.283203125  L 9.521484375 7.716796875  C 9.62999131944445 7.599609375  9.75477430555556 7.541015625  9.89583333333333 7.541015625  C 10.0368923611111 7.541015625  10.1616753472222 7.599609375  10.2701822916667 7.716796875  L 12.5 10.125  L 14.7298177083333 7.716796875  C 14.8383246527778 7.599609375  14.9631076388889 7.541015625  15.1041666666667 7.541015625  C 15.2452256944444 7.541015625  15.3700086805556 7.599609375  15.478515625 7.716796875  L 17.8548177083333 10.283203125  C 17.9633246527778 10.400390625  18.017578125 10.53515625  18.017578125 10.6875  C 18.017578125 10.83984375  17.9633246527778 10.974609375  17.8548177083333 11.091796875  L 15.625 13.5  L 17.8548177083333 15.908203125  C 17.9633246527778 16.025390625  18.017578125 16.16015625  18.017578125 16.3125  Z M 20.166015625 18.298828125  C 20.9581163194444 16.833984375  21.3541666666667 15.234375  21.3541666666667 13.5  C 21.3541666666667 11.765625  20.9581163194444 10.166015625  20.166015625 8.701171875  C 19.3739149305556 7.236328125  18.2996961805556 6.076171875  16.943359375 5.220703125  C 15.5870225694444 4.365234375  14.1059027777778 3.9375  12.5 3.9375  C 10.8940972222222 3.9375  9.41297743055556 4.365234375  8.056640625 5.220703125  C 6.70030381944444 6.076171875  5.62608506944444 7.236328125  4.833984375 8.701171875  C 4.04188368055556 10.166015625  3.64583333333333 11.765625  3.64583333333333 13.5  C 3.64583333333333 15.234375  4.04188368055556 16.833984375  4.833984375 18.298828125  C 5.62608506944444 19.763671875  6.70030381944444 20.923828125  8.056640625 21.779296875  C 9.41297743055556 22.634765625  10.8940972222222 23.0625  12.5 23.0625  C 14.1059027777778 23.0625  15.5870225694444 22.634765625  16.943359375 21.779296875  C 18.2996961805556 20.923828125  19.3739149305556 19.763671875  20.166015625 18.298828125  Z M 23.3235677083333 6.7236328125  C 24.4411892361111 8.7919921875  25 11.05078125  25 13.5  C 25 15.94921875  24.4411892361111 18.2080078125  23.3235677083333 20.2763671875  C 22.2059461805556 22.3447265625  20.6895616319444 23.982421875  18.7744140625 25.189453125  C 16.8592664930556 26.396484375  14.7677951388889 27  12.5 27  C 10.2322048611111 27  8.14073350694444 26.396484375  6.2255859375 25.189453125  C 4.31043836805556 23.982421875  2.79405381944444 22.3447265625  1.67643229166667 20.2763671875  C 0.558810763888889 18.2080078125  0 15.94921875  0 13.5  C 0 11.05078125  0.558810763888889 8.7919921875  1.67643229166667 6.7236328125  C 2.79405381944444 4.6552734375  4.31043836805556 3.017578125  6.2255859375 1.810546875  C 8.14073350694444 0.603515624999998  10.2322048611111 0  12.5 0  C 14.7677951388889 0  16.8592664930556 0.603515624999998  18.7744140625 1.810546875  C 20.6895616319444 3.017578125  22.2059461805556 4.6552734375  23.3235677083333 6.7236328125  Z " fill-rule="nonzero" fill="#ffffff" stroke="none" transform="matrix(1 0 0 1 631 218 )" />
  </g>
</svg>