<?xml version="1.0" encoding="utf-8"?>
<svg version="1.1" xmlns:xlink="http://www.w3.org/1999/xlink" width="32px" height="8px" xmlns="http://www.w3.org/2000/svg">
  <g transform="matrix(1 0 0 1 -412 -607 )">
    <path d="M 31.1607142857143 0.734375  C 31.7202380952381 1.22395833333333  32 1.8125  32 2.5  L 32 5.5  C 32 6.1875  31.7202380952381 6.77604166666667  31.1607142857143 7.265625  C 30.6011904761905 7.75520833333333  29.9285714285714 8  29.1428571428571 8  L 2.85714285714286 8  C 2.07142857142857 8  1.39880952380952 7.75520833333333  0.839285714285714 7.265625  C 0.279761904761905 6.77604166666667  0 6.1875  0 5.5  L 0 2.5  C 0 1.8125  0.279761904761905 1.22395833333333  0.839285714285714 0.734375  C 1.39880952380952 0.244791666666668  2.07142857142857 0  2.85714285714286 0  L 29.1428571428571 0  C 29.9285714285714 0  30.6011904761905 0.244791666666668  31.1607142857143 0.734375  Z " fill-rule="nonzero" fill="#ffffff" stroke="none" transform="matrix(1 0 0 1 412 607 )" />
  </g>
</svg>