<?xml version="1.0" encoding="utf-8"?>
<svg version="1.1" xmlns:xlink="http://www.w3.org/1999/xlink" width="32px" height="29px" xmlns="http://www.w3.org/2000/svg">
  <g transform="matrix(1 0 0 1 -581 -597 )">
    <path d="M 31.3636363636364 11.1221590909091  C 31.7878787878788 11.5066287878788  32 11.9734848484848  32 12.5227272727273  L 32 16.4772727272727  C 32 17.0265151515152  31.7878787878788 17.4933712121212  31.3636363636364 17.8778409090909  C 30.9393939393939 18.2623106060606  30.4242424242424 18.4545454545455  29.8181818181818 18.4545454545455  L 20.3636363636364 18.4545454545455  L 20.3636363636364 27.0227272727273  C 20.3636363636364 27.5719696969697  20.1515151515152 28.0388257575758  19.7272727272727 28.4232954545455  C 19.3030303030303 28.8077651515152  18.7878787878788 29  18.1818181818182 29  L 13.8181818181818 29  C 13.2121212121212 29  12.6969696969697 28.8077651515152  12.2727272727273 28.4232954545455  C 11.8484848484848 28.0388257575758  11.6363636363636 27.5719696969697  11.6363636363636 27.0227272727273  L 11.6363636363636 18.4545454545455  L 2.18181818181818 18.4545454545455  C 1.57575757575758 18.4545454545455  1.06060606060606 18.2623106060606  0.636363636363636 17.8778409090909  C 0.212121212121212 17.4933712121212  0 17.0265151515152  0 16.4772727272727  L 0 12.5227272727273  C 0 11.9734848484848  0.212121212121212 11.5066287878788  0.636363636363636 11.1221590909091  C 1.06060606060606 10.7376893939394  1.57575757575758 10.5454545454545  2.18181818181818 10.5454545454545  L 11.6363636363636 10.5454545454545  L 11.6363636363636 1.97727272727273  C 11.6363636363636 1.4280303030303  11.8484848484848 0.961174242424241  12.2727272727273 0.576704545454546  C 12.6969696969697 0.192234848484848  13.2121212121212 0  13.8181818181818 0  L 18.1818181818182 0  C 18.7878787878788 0  19.3030303030303 0.192234848484848  19.7272727272727 0.576704545454546  C 20.1515151515152 0.961174242424241  20.3636363636364 1.4280303030303  20.3636363636364 1.97727272727273  L 20.3636363636364 10.5454545454545  L 29.8181818181818 10.5454545454545  C 30.4242424242424 10.5454545454545  30.9393939393939 10.7376893939394  31.3636363636364 11.1221590909091  Z " fill-rule="nonzero" fill="#ffffff" stroke="none" transform="matrix(1 0 0 1 581 597 )" />
  </g>
</svg>